<svg width="24" height="22" viewBox="0 0 24 22" fill="none" xmlns="http://www.w3.org/2000/svg">
<path d="M16.3499 7.21248C15.0749 6.01248 13.4249 5.41247 11.6249 5.52497C8.36237 5.71247 5.77487 8.41248 5.73737 11.6375C5.69987 13.7 6.67487 15.575 8.28737 16.7375V19.4375C8.28737 20.825 9.41237 21.9125 10.7999 21.9125H13.1249C14.5124 21.9125 15.6374 20.7875 15.6374 19.4375V16.775C17.2874 15.6125 18.2624 13.7375 18.2624 11.7125C18.2999 10.025 17.5874 8.41248 16.3499 7.21248ZM13.1624 20.2625H10.8374C10.3874 20.2625 10.0124 19.8875 10.0124 19.475V17.1875H14.0249V19.475C13.9874 19.8875 13.6124 20.2625 13.1624 20.2625ZM14.5874 15.4625H12.8249V14.45C12.8249 14 12.4499 13.5875 11.9624 13.5875C11.5124 13.5875 11.0999 13.9625 11.0999 14.45V15.4625H9.37487C8.09987 14.6 7.34987 13.2125 7.38737 11.6375C7.42487 9.27498 9.29987 7.32497 11.6999 7.17497C11.7749 7.17497 11.8874 7.17497 11.9624 7.17497C13.1999 7.17497 14.2874 7.58748 15.1499 8.41248C16.0499 9.27498 16.5749 10.475 16.5749 11.7125C16.6124 13.25 15.8624 14.6375 14.5874 15.4625Z" fill="#111928"/>
<path d="M12 3.91249C12.45 3.91249 12.8625 3.53749 12.8625 3.04999V0.912488C12.8625 0.462488 12.4875 0.0499878 12 0.0499878C11.55 0.0499878 11.1375 0.424988 11.1375 0.912488V3.08749C11.175 3.53749 11.55 3.91249 12 3.91249Z" fill="#111928"/>
<path d="M21.75 5.14999C22.0875 4.81249 22.0875 4.28749 21.75 3.94999C21.4125 3.61249 20.8875 3.61249 20.55 3.94999L19.05 5.41249C18.7125 5.74999 18.7125 6.27499 19.05 6.61249C19.2 6.76249 19.425 6.87499 19.65 6.87499C19.875 6.87499 20.0625 6.79999 20.25 6.64999L21.75 5.14999Z" fill="#111928"/>
<path d="M3.44995 3.94999C3.11245 3.61249 2.58745 3.61249 2.24995 3.94999C1.91245 4.28749 1.91245 4.81249 2.24995 5.14999L3.71245 6.61249C3.86245 6.76249 4.08745 6.87499 4.31245 6.87499C4.53745 6.87499 4.76245 6.79999 4.91245 6.61249C5.24995 6.27499 5.24995 5.74999 4.91245 5.41249L3.44995 3.94999Z" fill="#111928"/>
<path d="M3.29995 12.4625H1.12495C0.674951 12.4625 0.262451 12.8375 0.262451 13.325C0.262451 13.8125 0.637451 14.1875 1.12495 14.1875H3.29995C3.74995 14.1875 4.16245 13.8125 4.16245 13.325C4.16245 12.8375 3.74995 12.4625 3.29995 12.4625Z" fill="#111928"/>
<path d="M22.8749 12.4625H20.6999C20.2499 12.4625 19.8374 12.8375 19.8374 13.325C19.8374 13.8125 20.2124 14.1875 20.6999 14.1875H22.8749C23.3249 14.1875 23.7374 13.8125 23.7374 13.325C23.7374 12.8375 23.3249 12.4625 22.8749 12.4625Z" fill="#111928"/>
</svg>
