<svg width="22" height="24" viewBox="0 0 22 24" fill="none" xmlns="http://www.w3.org/2000/svg">
<path d="M15.6875 23.3625H2.18745C1.32495 23.3625 0.574951 22.65 0.574951 21.75V14.25C0.574951 13.3875 1.28745 12.6375 2.18745 12.6375H2.86245V8.25C2.86245 7.3875 3.57495 6.6375 4.47495 6.6375H5.14995V2.25C5.14995 1.3875 5.86245 0.637501 6.76245 0.637501H20.2625C21.125 0.637501 21.875 1.35 21.875 2.25V9.75C21.875 10.6125 21.1625 11.3625 20.2625 11.3625H19.5875V15.75C19.5875 16.6125 18.875 17.3625 17.975 17.3625H17.2999V21.75C17.2999 22.6125 16.55 23.3625 15.6875 23.3625ZM2.29995 21.675H15.6125V14.3625H2.29995V21.675ZM17.2999 15.675H17.8624V8.3625H4.54995V12.675H15.725C16.5875 12.675 17.3375 13.3875 17.3375 14.2875V15.675H17.2999ZM19.5499 9.675H20.1124V2.3625H6.79995V6.675H17.975C18.8375 6.675 19.5875 7.3875 19.5875 8.2875V9.675H19.5499Z" fill="#F2F2F2"/>
</svg>
