<svg width="24" height="24" viewBox="0 0 24 24" fill="none" xmlns="http://www.w3.org/2000/svg">
<path d="M6.03759 23.325C5.70009 23.325 5.36259 23.2125 5.10009 23.025C4.57509 22.65 4.27509 21.975 4.38759 21.3375L5.36259 15.3L1.16259 10.9875C0.71259 10.5375 0.562591 9.8625 0.750091 9.225C0.937591 8.625 1.46259 8.175 2.06259 8.1L7.87509 7.1625L10.5001 1.65C10.8001 1.05 11.3626 0.674999 12.0001 0.674999C12.6376 0.674999 13.2376 1.05 13.5001 1.65L16.1251 7.125L21.9001 8.025C22.5001 8.1375 23.0251 8.55 23.2126 9.15C23.4376 9.7875 23.2501 10.4625 22.8001 10.9125L18.6376 15.2625L19.6126 21.3375C19.7251 22.0125 19.4626 22.65 18.9001 23.025C18.3751 23.4 17.7376 23.4375 17.1751 23.1375L12.0001 20.325L6.82509 23.1375C6.60009 23.2875 6.30009 23.325 6.03759 23.325ZM2.36259 9.75C2.36259 9.75 2.36259 9.7875 2.36259 9.825L6.75009 14.325C7.01259 14.5875 7.12509 15 7.08759 15.375L6.07509 21.6375C6.07509 21.6375 6.07509 21.6375 6.07509 21.675L11.4751 18.75C11.8126 18.5625 12.2251 18.5625 12.6001 18.75L18.0001 21.675C18.0001 21.675 18.0001 21.675 18.0001 21.6375L16.9876 15.3375C16.9126 14.9625 17.0626 14.5875 17.3251 14.2875L21.7126 9.7875C21.7501 9.75 21.7126 9.7125 21.7126 9.7125L15.6751 8.775C15.3001 8.7 14.9626 8.475 14.8126 8.1L12.0001 2.4L9.30009 8.1375C9.15009 8.475 8.81259 8.7375 8.43759 8.8125L2.36259 9.75Z" fill="#111928"/>
</svg>
